<svg xmlns="http://www.w3.org/2000/svg" width="24" height="24" viewBox="0 0 24 24" fill="none">
  <path d="M 0.593 17.519 L 0.111 17.185 L 0.111 16.222 L 0.704 13.556 L 1.741 11.333 L 3.222 9.333 L 4.593 8.037 L 5.407 7.444 L 7.037 6.556 L 8.370 6.037 L 11.185 5.519 L 13.407 5.593 L 15.556 6.037 L 18.000 7.148 L 19.630 8.333 L 21.148 9.852 L 22.333 11.556 L 23.444 14.296 L 23.815 16.444 L 23.667 17.259 L 23.407 17.444 L 22.963 17.370 L 22.778 17.037 L 22.778 16.370 L 22.407 14.370 L 21.444 12.074 L 20.259 10.370 L 18.593 8.778 L 17.037 7.741 L 15.111 6.926 L 12.963 6.556 L 10.963 6.556 L 9.185 6.852 L 7.630 7.370 L 5.778 8.407 L 3.963 10.000 L 3.148 11.037 L 2.185 12.667 L 1.370 14.963 L 1.148 16.963 L 1.000 17.333 L 0.593 17.519 Z M 12.593 15.815 L 11.370 15.704 L 11.815 15.111 L 11.815 11.704 L 11.704 11.444 L 10.778 10.889 L 10.407 10.222 L 10.407 9.407 L 10.556 9.111 L 11.037 8.556 L 11.630 8.259 L 12.444 8.259 L 12.889 8.481 L 13.370 8.963 L 13.667 9.704 L 13.667 10.074 L 13.370 10.741 L 12.889 11.222 L 12.407 11.481 L 12.333 15.185 L 12.556 15.481 L 12.407 15.630 L 12.519 15.667 L 12.593 15.519 L 12.704 15.630 L 12.593 15.815 Z M 12.259 10.815 L 12.593 10.704 L 12.926 10.370 L 13.074 9.704 L 12.926 9.333 L 12.593 9.000 L 12.296 8.852 L 11.704 8.852 L 11.074 9.407 L 11.000 10.148 L 11.148 10.444 L 11.481 10.704 L 11.852 10.852 L 12.259 10.815 Z M 10.815 15.741 L 9.667 15.704 L 9.667 15.556 L 9.963 15.259 L 9.963 13.556 L 9.741 12.963 L 9.333 12.556 L 8.667 12.259 L 7.926 12.259 L 7.407 12.852 L 6.889 13.148 L 6.000 13.148 L 5.296 12.593 L 5.074 12.148 L 5.074 11.556 L 5.370 10.963 L 5.926 10.556 L 6.741 10.481 L 7.185 10.704 L 7.593 11.111 L 7.926 11.741 L 8.963 11.741 L 9.630 12.037 L 10.185 12.593 L 10.481 13.185 L 10.556 15.259 L 10.778 15.481 L 10.815 15.741 Z M 13.704 15.815 L 13.185 15.741 L 13.148 15.630 L 13.444 15.259 L 13.444 13.704 L 13.889 12.519 L 14.815 11.815 L 15.407 11.667 L 16.148 11.667 L 16.407 11.111 L 17.111 10.556 L 17.926 10.481 L 18.444 10.704 L 18.852 11.185 L 19.000 11.630 L 19.000 12.000 L 18.704 12.667 L 18.074 13.148 L 17.481 13.222 L 16.741 12.926 L 16.333 12.370 L 16.074 12.259 L 15.259 12.259 L 14.815 12.481 L 14.259 13.037 L 14.037 13.704 L 14.037 15.259 L 14.333 15.481 L 14.333 15.704 L 13.704 15.815 Z M 6.630 12.593 L 7.148 12.222 L 7.222 11.630 L 6.889 11.222 L 6.222 11.074 L 5.815 11.333 L 5.667 12.000 L 6.000 12.481 L 6.370 12.630 L 6.630 12.593 Z M 17.667 12.593 L 17.926 12.556 L 18.259 12.296 L 18.407 11.704 L 18.074 11.222 L 17.407 11.074 L 16.926 11.407 L 16.778 11.852 L 16.926 12.222 L 17.259 12.556 L 17.667 12.593 Z M 10.111 13.407 L 10.074 13.296 L 9.963 13.333 L 10.000 13.444 L 10.111 13.407 Z M 14.889 18.407 L 14.222 18.407 L 14.000 18.185 L 13.704 18.333 L 13.667 17.852 L 13.852 17.741 L 14.963 17.667 L 15.222 17.778 L 15.333 18.111 L 16.000 18.111 L 17.778 17.815 L 18.407 17.407 L 18.407 16.444 L 18.074 16.407 L 17.259 16.704 L 15.556 16.926 L 14.889 16.926 L 14.815 16.778 L 14.519 16.778 L 14.593 17.000 L 9.333 17.000 L 7.704 16.852 L 7.630 16.704 L 7.111 16.778 L 5.667 16.444 L 5.667 17.481 L 5.778 17.593 L 6.667 17.889 L 8.444 18.111 L 8.593 18.111 L 8.889 17.667 L 10.074 17.741 L 10.185 17.852 L 10.185 18.296 L 10.074 18.407 L 9.556 18.407 L 6.963 18.185 L 5.481 17.741 L 5.148 17.481 L 5.074 15.778 L 5.481 15.296 L 6.000 15.000 L 7.333 14.630 L 8.148 14.630 L 8.222 14.481 L 9.259 14.333 L 9.444 14.444 L 8.889 14.481 L 8.852 14.593 L 9.185 14.630 L 9.333 14.852 L 9.481 14.481 L 9.481 14.926 L 6.963 15.222 L 6.000 15.593 L 5.889 15.778 L 6.148 16.037 L 7.407 16.259 L 7.222 16.370 L 7.259 16.481 L 7.407 16.481 L 7.481 16.333 L 7.926 16.333 L 8.741 16.481 L 9.852 16.481 L 10.148 16.704 L 10.296 16.556 L 13.852 16.556 L 15.333 16.407 L 15.926 16.481 L 16.000 16.333 L 16.963 16.259 L 17.852 16.037 L 18.111 15.852 L 18.000 15.593 L 17.259 15.296 L 14.556 14.889 L 14.593 14.630 L 15.185 14.630 L 15.259 14.481 L 16.741 14.630 L 17.852 14.926 L 18.370 15.148 L 18.852 15.556 L 18.926 17.333 L 18.667 17.667 L 17.852 18.037 L 14.889 18.407 Z M 13.667 14.815 L 13.556 14.630 L 13.519 14.815 L 13.667 14.815 Z M 8.852 14.889 L 8.815 14.778 L 8.704 14.815 L 8.741 14.926 L 8.852 14.889 Z M 12.667 18.407 L 11.259 18.407 L 11.222 18.000 L 11.333 17.815 L 12.667 17.815 L 12.667 18.407 Z M 12.630 18.074 L 12.593 17.963 L 12.481 18.000 L 12.519 18.111 L 12.630 18.074 Z M 15.148 18.222 L 15.185 17.963 L 14.852 18.148 L 14.889 18.259 L 15.148 18.222 Z" fill="#C5C5C5" fill-rule="evenodd"/>
</svg>
